<svg width="137" height="32" viewBox="0 0 137 32" fill="none" xmlns="http://www.w3.org/2000/svg">
<g opacity="0.6">
<path d="M33.1768 7.63477H36.3421V22.9518H33.1768V7.63477Z" fill="#1D2130"/>
<path d="M38.1147 17.7048C38.1147 16.6027 38.4404 15.5256 39.0505 14.6097C39.6606 13.6939 40.5276 12.9806 41.5416 12.5604C42.5556 12.1401 43.671 12.0318 44.7464 12.2491C45.8218 12.4664 46.8087 12.9996 47.5822 13.7811C48.3556 14.5625 48.8806 15.5571 49.0908 16.6387C49.3009 17.7203 49.1867 18.8402 48.7626 19.8565C48.3385 20.8728 47.6236 21.7397 46.7085 22.3474C45.7934 22.955 44.7193 23.276 43.6224 23.2698C42.8948 23.2755 42.1735 23.1352 41.5006 22.8571C40.8278 22.5791 40.2169 22.1689 39.7039 21.6506C39.1909 21.1322 38.7861 20.5162 38.5132 19.8387C38.2403 19.1611 38.1048 18.4356 38.1147 17.7048ZM46.0491 17.7048C46.0367 17.2297 45.8851 16.7688 45.6133 16.3798C45.3415 15.9908 44.9616 15.691 44.5211 15.5178C44.0805 15.3446 43.599 15.3057 43.1366 15.406C42.6742 15.5063 42.2514 15.7414 41.9213 16.0817C41.5912 16.4221 41.3683 16.8528 41.2805 17.3198C41.1927 17.7868 41.2438 18.2694 41.4276 18.7073C41.6114 19.1452 41.9197 19.519 42.3138 19.7818C42.7079 20.0447 43.1704 20.185 43.6435 20.1852C43.9656 20.1915 44.2855 20.131 44.5832 20.0074C44.881 19.8839 45.1502 19.7 45.374 19.4672C45.5978 19.2344 45.7714 18.9577 45.8839 18.6545C45.9964 18.3512 46.0455 18.0279 46.028 17.7048H46.0491Z" fill="#1D2130"/>
<path d="M61.6543 12.4578V22.4324C61.6543 25.9516 58.911 27.4462 56.1361 27.4462C55.1573 27.5269 54.1755 27.3315 53.3012 26.882C52.427 26.4326 51.695 25.7469 51.1876 24.9022L53.857 23.3546C54.0733 23.7927 54.4174 24.1542 54.8434 24.3909C55.2695 24.6277 55.7572 24.7283 56.2416 24.6796C56.5502 24.7178 56.8633 24.687 57.1587 24.5894C57.4541 24.4918 57.7243 24.3299 57.9502 24.1152C58.176 23.9005 58.3518 23.6383 58.465 23.3474C58.5782 23.0565 58.626 22.744 58.605 22.4324V21.4678C58.2367 21.9164 57.7693 22.2727 57.24 22.5082C56.7107 22.7437 56.134 22.852 55.5558 22.8246C54.1566 22.8246 52.8147 22.2662 51.8254 21.2722C50.836 20.2783 50.2802 18.9302 50.2802 17.5246C50.2802 16.1189 50.836 14.7708 51.8254 13.7769C52.8147 12.783 54.1566 12.2246 55.5558 12.2246C56.134 12.1971 56.7107 12.3054 57.24 12.5409C57.7693 12.7765 58.2367 13.1327 58.605 13.5814V12.5214L61.6543 12.4578ZM58.605 17.4928C58.6261 16.9856 58.4956 16.4838 58.2305 16.0517C57.9654 15.6196 57.5776 15.2771 57.1172 15.0682C56.6567 14.8593 56.1446 14.7936 55.6466 14.8794C55.1486 14.9653 54.6876 15.1988 54.3229 15.55C53.9581 15.9012 53.7062 16.354 53.5997 16.8502C53.4931 17.3463 53.5367 17.8632 53.7249 18.3342C53.913 18.8053 54.2371 19.209 54.6556 19.4935C55.074 19.7781 55.5675 19.9303 56.0728 19.9308C56.4024 19.9546 56.7334 19.9087 57.0444 19.7961C57.3553 19.6835 57.6392 19.5065 57.8779 19.2768C58.1165 19.047 58.3045 18.7695 58.4298 18.4622C58.555 18.1549 58.6147 17.8247 58.605 17.4928Z" fill="#1D2130"/>
<path d="M63.4374 17.7048C63.4374 16.6036 63.7626 15.5273 64.3717 14.6119C64.9808 13.6965 65.8466 12.9832 66.8594 12.5624C67.8722 12.1415 68.9865 12.0319 70.0613 12.2475C71.1361 12.4631 72.1231 12.9941 72.8974 13.7735C73.6717 14.5528 74.1984 15.5454 74.4109 16.6256C74.6235 17.7058 74.5123 18.8251 74.0914 19.8417C73.6705 20.8584 72.9589 21.7268 72.0466 22.337C71.1342 22.9473 70.0622 23.2718 68.9662 23.2698C68.2373 23.2769 67.5143 23.1377 66.8396 22.8604C66.165 22.5831 65.5522 22.1733 65.0372 21.655C64.5223 21.1367 64.1155 20.5203 63.8408 19.8419C63.5661 19.1636 63.429 18.437 63.4374 17.7048ZM71.3719 17.7048C71.3594 17.2292 71.2075 16.7679 70.9353 16.3787C70.663 15.9895 70.2825 15.6897 69.8413 15.5168C69.4002 15.3439 68.9181 15.3057 68.4554 15.4069C67.9927 15.508 67.5701 15.7441 67.2404 16.0856C66.9107 16.427 66.6886 16.8586 66.602 17.3263C66.5154 17.794 66.5681 18.2769 66.7535 18.7147C66.9389 19.1524 67.2487 19.5254 67.6442 19.787C68.0397 20.0486 68.5032 20.1871 68.9768 20.1852C69.2988 20.1915 69.6188 20.131 69.9165 20.0074C70.2143 19.8839 70.4835 19.7 70.7073 19.4672C70.9311 19.2344 71.1046 18.9577 71.2172 18.6545C71.3297 18.3512 71.3788 18.0279 71.3613 17.7048H71.3719Z" fill="#1D2130"/>
<path d="M75.9617 9.64871C75.9617 9.27554 76.0718 8.91074 76.2782 8.60046C76.4846 8.29018 76.7779 8.04834 77.1211 7.90553C77.4642 7.76273 77.8419 7.72536 78.2062 7.79816C78.5705 7.87097 78.9051 8.05067 79.1678 8.31454C79.4304 8.57842 79.6093 8.91461 79.6818 9.28061C79.7542 9.64662 79.7171 10.026 79.5749 10.3708C79.4328 10.7155 79.192 11.0102 78.8832 11.2175C78.5743 11.4249 78.2112 11.5355 77.8398 11.5355C77.3434 11.53 76.8688 11.3294 76.5178 10.9768C76.1668 10.6241 75.9672 10.1474 75.9617 9.64871ZM76.2677 12.4577H79.433V22.9517H76.2677V12.4577Z" fill="#1D2130"/>
<path d="M92.9806 17.7048C93.0161 18.4027 92.9138 19.1008 92.6797 19.7588C92.4456 20.4169 92.0843 21.0219 91.6165 21.5391C91.1487 22.0564 90.5838 22.4755 89.9541 22.7726C89.3245 23.0696 88.6426 23.2386 87.9477 23.2698C87.358 23.3092 86.7671 23.2143 86.219 22.9922C85.6709 22.7702 85.1798 22.4266 84.7824 21.9872V27.1706H81.617V12.4578H84.7824V13.4436C85.1803 13.0055 85.6718 12.6635 86.22 12.4432C86.7681 12.2229 87.3588 12.1301 87.9477 12.1716C88.6398 12.2029 89.319 12.3709 89.9465 12.6659C90.574 12.9609 91.1375 13.3772 91.6049 13.891C92.0722 14.4048 92.4342 15.0061 92.6703 15.6604C92.9063 16.3148 93.0118 17.0095 92.9806 17.7048ZM89.8153 17.7048C89.8028 17.2125 89.646 16.7348 89.3644 16.3317C89.0829 15.9285 88.6892 15.6178 88.2326 15.4385C87.776 15.2592 87.2769 15.2193 86.7979 15.3237C86.3188 15.4282 85.8811 15.6724 85.5396 16.0257C85.1981 16.379 84.968 16.8257 84.8781 17.3098C84.7883 17.7939 84.8426 18.294 85.0344 18.7472C85.2262 19.2004 85.5469 19.5867 85.9563 19.8575C86.3657 20.1284 86.8455 20.2719 87.3357 20.27C87.6715 20.2843 88.0065 20.2272 88.3187 20.1023C88.631 19.9774 88.9134 19.7877 89.1475 19.5455C89.3817 19.3032 89.5622 19.014 89.6773 18.6968C89.7923 18.3796 89.8394 18.0415 89.8153 17.7048Z" fill="#1D2130"/>
<path d="M102.614 19.8035C102.614 22.2203 100.504 23.2485 98.2667 23.2485C97.3544 23.331 96.4384 23.1368 95.6371 22.6908C94.8359 22.2449 94.1861 21.5677 93.7719 20.7469L96.4941 19.1993C96.602 19.5776 96.8358 19.9071 97.1566 20.1329C97.4773 20.3586 97.8655 20.4669 98.2562 20.4395C99.0053 20.4395 99.3851 20.2063 99.3851 19.7823C99.3851 18.6269 94.2467 19.2417 94.2467 15.6059C94.2467 13.3163 96.167 12.1715 98.3406 12.1715C99.1668 12.1344 99.9876 12.3227 100.716 12.7165C101.444 13.1103 102.053 13.6949 102.477 14.4081L99.7544 15.8497C99.6342 15.5763 99.4377 15.3437 99.1886 15.18C98.9396 15.0164 98.6487 14.9287 98.3511 14.9275C97.8025 14.9275 97.4754 15.1395 97.4754 15.5105C97.4754 16.7189 102.614 15.9239 102.614 19.8035Z" fill="#1D2130"/>
<path d="M114.083 12.4578V22.9518H110.917V21.966C110.558 22.4024 110.101 22.7477 109.584 22.9742C109.068 23.2006 108.505 23.3019 107.942 23.2698C105.832 23.2698 104.028 21.754 104.028 18.9238V12.4578H107.193V18.4468C107.168 18.6972 107.198 18.95 107.279 19.1878C107.361 19.4256 107.494 19.6427 107.667 19.8241C107.841 20.0056 108.051 20.147 108.285 20.2386C108.518 20.3302 108.768 20.3699 109.018 20.3548C110.158 20.3548 110.96 19.6764 110.96 18.2348V12.4578H114.083Z" fill="#1D2130"/>
<path d="M132.02 16.5069V22.9517H128.854V16.7825C128.854 15.7225 128.358 15.0653 127.356 15.0653C126.354 15.0653 125.721 15.7967 125.721 17.0369V22.9517H122.555V16.7825C122.555 15.7225 122.059 15.0653 121.057 15.0653C120.055 15.0653 119.422 15.7967 119.422 17.0369V22.9517H116.256V12.4577H119.422V13.4223C119.749 12.9962 120.178 12.6587 120.668 12.4403C121.157 12.222 121.694 12.1296 122.228 12.1715C122.764 12.1435 123.297 12.2558 123.776 12.4974C124.255 12.7389 124.664 13.1015 124.961 13.5495C125.309 13.0815 125.769 12.7096 126.298 12.4686C126.828 12.2276 127.41 12.1254 127.989 12.1715C130.458 12.1715 132.02 13.8887 132.02 16.5069Z" fill="#1D2130"/>
<path d="M14.3219 4.87878V0.373779H0.18335V31.3258H14.3219V26.8208C11.4256 26.8208 8.64794 25.6649 6.59997 23.6074C4.55199 21.55 3.40145 18.7595 3.40145 15.8498C3.40145 12.9401 4.55199 10.1496 6.59997 8.09211C8.64794 6.03465 11.4256 4.87878 14.3219 4.87878Z" fill="#1D2130"/>
<path d="M14.3219 4.87878V26.8208C17.2182 26.8208 19.9957 25.6649 22.0437 23.6074C24.0917 21.55 25.2422 18.7595 25.2422 15.8498C25.2422 12.9401 24.0917 10.1496 22.0437 8.09211C19.9957 6.03465 17.2182 4.87878 14.3219 4.87878Z" fill="#1D2130"/>
<path d="M134.679 12.3942C135.961 12.3942 137 11.3501 137 10.0622C137 8.77422 135.961 7.73015 134.679 7.73015C133.397 7.73015 132.357 8.77422 132.357 10.0622C132.357 11.3501 133.397 12.3942 134.679 12.3942Z" fill="#1D2130"/>
</g>
</svg>
